# xmcd
#
# Track frame offsets: 
#        150
#        17827
#        37210
#        65989
#        89698
#        109968
#        133962
#        145205
#        162283
#
# Disc length: 2453 seconds
#
# Revision: 0
# Processed by: cddbd v1.5.2PL0 Copyright (c) Steve Scherf et al.
# Submitted via: ExactAudioCopy v1.0b4
#
DISCID=8f099309
DTITLE=Ari Borger - Live At The Cincy Blues Fest
DYEAR=2015
DGENRE=Blues
TTITLE0=Song For Jay
TTITLE1=Baby Won't You Jump With Me
TTITLE2=Funky B
TTITLE3=Mean Red Spider
TTITLE4=Playing With My Soul
TTITLE5=Bricks On My Pillow
TTITLE6=Green Onions
TTITLE7=Blues Feeling
TTITLE8=French Quartet Boogie
EXTD=
EXTT0=
EXTT1=
EXTT2=
EXTT3=
EXTT4=
EXTT5=
EXTT6=
EXTT7=
EXTT8=
PLAYORDER=
